<?xml version="1.0" encoding="utf-8"?>
<!-- Generator: Adobe Illustrator 19.2.0, SVG Export Plug-In . SVG Version: 6.00 Build 0)  -->
<svg version="1.1" id="Layer_1" xmlns="http://www.w3.org/2000/svg" xmlns:xlink="http://www.w3.org/1999/xlink" x="0px" y="0px"
	 viewBox="0 0 1127.5 391.7" style="enable-background:new 0 0 1127.5 391.7;" xml:space="preserve">
<style type="text/css">
	.st0{fill:#d0c7ab;}
</style>
<path class="st0" d="M1093.1,329v-21.8c0-1.6-1.3-2.8-2.8-2.8h-7.5V148c0-6.3-5.1-11.3-11.3-11.3h-83.8v-6.2c0-1.6-1.3-2.8-2.8-2.8
	h-78.3c-1.6,0-2.8,1.3-2.8,2.8v6.2h-97.9c-2.1-4.2-5.1-7.8-8.8-10.6l65.9-52.5c1.5-1.2,2.4-2.9,2.4-4.7c0-1.8-0.9-3.5-2.4-4.7
	L784.1,1.6c-1.3-1-2.9-1.6-4.7-1.6s-3.4,0.6-4.7,1.6l-78.7,62.7c-1.5,1.2-2.4,2.9-2.4,4.7c0,1.8,0.9,3.5,2.4,4.7l65.9,52.5
	c-3.7,2.8-6.8,6.4-8.8,10.6H569.5v-6.2c0-1.6-1.3-2.8-2.8-2.8h-78.3c-1.6,0-2.8,1.3-2.8,2.8v6.2H190.8v-6.2c0-1.6-1.3-2.8-2.8-2.8
	h-78.3c-1.6,0-2.8,1.3-2.8,2.8v6.2H56.1c-6.3,0-11.3,5.1-11.3,11.3v47h-2.7v95.3h2.7v14h-7.5c-1.6,0-2.8,1.3-2.8,2.8V329H4.6v7.3
	h29.8v1.8c0,1.6,1.3,2.8,2.8,2.8h7.6c0.8,5.5,5.5,9.7,11.2,9.7h36v5.5c0,1.6,1.3,2.8,2.8,2.8h15.3c3.7,18.6,20.2,32.7,39.9,32.7
	s36.2-14,39.9-32.7h8.1c3.7,18.6,20.2,32.7,39.9,32.7s36.2-14,39.9-32.7H320c1.6,0,2.8-1.3,2.8-2.8v-5.5h140.7v5.5
	c0,1.6,1.3,2.8,2.8,2.8H480c3.7,18.6,20.2,32.7,39.9,32.7c19.7,0,36.2-14,39.9-32.7h8.1c3.7,18.6,20.2,32.7,39.9,32.7
	c19.7,0,36.2-14,39.9-32.7h13.7c1.6,0,2.8-1.3,2.8-2.8v-5.5h141.3v5.5c0,1.6,1.3,2.8,2.8,2.8H850c3.7,18.6,20.2,32.7,39.9,32.7
	c19.7,0,36.2-14,39.9-32.7h8.1c3.7,18.6,20.2,32.7,39.9,32.7c19.7,0,36.2-14,39.9-32.7h15.1c1.6,0,2.8-1.3,2.8-2.8v-5.5h36
	c5.7,0,10.4-4.2,11.2-9.7h7.6c1.6,0,2.8-1.3,2.8-2.8v-1.8h32.3V329H1093.1z M112.4,238.5c0,2.3-1.9,4.3-4.3,4.3H58
	c-2.3,0-4.3-1.9-4.3-4.3v-77.3c0-2.3,1.9-4.3,4.3-4.3h50.2c2.3,0,4.3,1.9,4.3,4.3V238.5z M157.8,341.5c0,2.3-1.9,4.3-4.3,4.3H128
	c-2.3,0-4.3-1.9-4.3-4.3V161.1c0-2.3,1.9-4.3,4.3-4.3h25.5c2.3,0,4.3,1.9,4.3,4.3V341.5z M195.8,341.5c0,2.3-1.9,4.3-4.3,4.3H166
	c-2.3,0-4.3-1.9-4.3-4.3V161.1c0-2.3,1.9-4.3,4.3-4.3h25.5c2.3,0,4.3,1.9,4.3,4.3V341.5z M359.1,238.5c0,2.3-1.9,4.3-4.3,4.3H211.4
	c-2.3,0-4.3-1.9-4.3-4.3v-77.3c0-2.3,1.9-4.3,4.3-4.3h143.5c2.3,0,4.3,1.9,4.3,4.3V238.5z M516.5,238.5c0,2.3-1.9,4.3-4.3,4.3H368.7
	c-2.3,0-4.3-1.9-4.3-4.3v-77.3c0-2.3,1.9-4.3,4.3-4.3h143.5c2.3,0,4.3,1.9,4.3,4.3V238.5z M561.8,341.5c0,2.3-1.9,4.3-4.3,4.3H532
	c-2.3,0-4.3-1.9-4.3-4.3V161.1c0-2.3,1.9-4.3,4.3-4.3h25.5c2.3,0,4.3,1.9,4.3,4.3V341.5z M599.8,341.5c0,2.3-1.9,4.3-4.3,4.3H570
	c-2.3,0-4.3-1.9-4.3-4.3V161.1c0-2.3,1.9-4.3,4.3-4.3h25.5c2.3,0,4.3,1.9,4.3,4.3V341.5z M701.5,69l77.6-61.8c0,0,0.5,0,0.5,0
	L857.4,69l-67.1,53.5c-3.3-1.3-7-2-10.8-2c-3.8,0-7.4,0.7-10.8,2L701.5,69z M763.1,238.5c0,2.3-1.9,4.3-4.3,4.3H615.4
	c-2.3,0-4.3-1.9-4.3-4.3v-77.3c0-2.3,1.9-4.3,4.3-4.3h143.5c2.3,0,4.3,1.9,4.3,4.3V238.5z M920.5,238.5c0,2.3-1.9,4.3-4.3,4.3H772.7
	c-2.3,0-4.3-1.9-4.3-4.3v-77.3c0-2.3,1.9-4.3,4.3-4.3h143.5c2.3,0,4.3,1.9,4.3,4.3V238.5z M965.8,341.5c0,2.3-1.9,4.3-4.3,4.3h-25.5
	c-2.3,0-4.3-1.9-4.3-4.3V161.1c0-2.3,1.9-4.3,4.3-4.3h25.5c2.3,0,4.3,1.9,4.3,4.3V341.5z M1003.8,341.5c0,2.3-1.9,4.3-4.3,4.3h-25.5
	c-2.3,0-4.3-1.9-4.3-4.3V161.1c0-2.3,1.9-4.3,4.3-4.3h25.5c2.3,0,4.3,1.9,4.3,4.3V341.5z M1073.8,238.5c0,2.3-1.9,4.3-4.3,4.3h-50.2
	c-2.3,0-4.3-1.9-4.3-4.3v-77.3c0-2.3,1.9-4.3,4.3-4.3h50.2c2.3,0,4.3,1.9,4.3,4.3V238.5z"/>
<path class="st0" d="M1123.5,325.1l-0.5-0.3h-4.5v16.4h4.5l0.5-0.3c2.4-1.9,4-4.7,4-7.9S1125.9,327,1123.5,325.1z"/>
<path class="st0" d="M4,340.8l0.5,0.3H9v-16.4H4.5L4,325.1c-2.4,1.9-4,4.7-4,7.9S1.6,339,4,340.8z"/>
</svg>
